<svg width="30" height="30" viewBox="0 0 30 30" fill="none" xmlns="http://www.w3.org/2000/svg">
<g id="Calendar">
<path id="Vector" d="M22.5 6.5625H20.625V5.625C20.625 5.37636 20.5262 5.1379 20.3504 4.96209C20.1746 4.78627 19.9361 4.6875 19.6875 4.6875C19.4389 4.6875 19.2004 4.78627 19.0246 4.96209C18.8488 5.1379 18.75 5.37636 18.75 5.625V6.5625H15.9375V5.625C15.9375 5.37636 15.8387 5.1379 15.6629 4.96209C15.4871 4.78627 15.2486 4.6875 15 4.6875C14.7514 4.6875 14.5129 4.78627 14.3371 4.96209C14.1613 5.1379 14.0625 5.37636 14.0625 5.625V6.5625H11.25V5.625C11.25 5.37636 11.1512 5.1379 10.9754 4.96209C10.7996 4.78627 10.5611 4.6875 10.3125 4.6875C10.0639 4.6875 9.8254 4.78627 9.64959 4.96209C9.47377 5.1379 9.375 5.37636 9.375 5.625V6.5625H7.5C6.75408 6.5625 6.03871 6.85882 5.51126 7.38626C4.98382 7.91371 4.6875 8.62908 4.6875 9.375V22.5C4.6875 23.2459 4.98382 23.9613 5.51126 24.4887C6.03871 25.0162 6.75408 25.3125 7.5 25.3125H22.5C23.2459 25.3125 23.9613 25.0162 24.4887 24.4887C25.0162 23.9613 25.3125 23.2459 25.3125 22.5V9.375C25.3125 8.62908 25.0162 7.91371 24.4887 7.38626C23.9613 6.85882 23.2459 6.5625 22.5 6.5625ZM6.5625 9.375C6.5625 9.12636 6.66127 8.8879 6.83709 8.71209C7.0129 8.53627 7.25136 8.4375 7.5 8.4375H9.375V9.375C9.375 9.62364 9.47377 9.8621 9.64959 10.0379C9.8254 10.2137 10.0639 10.3125 10.3125 10.3125C10.5611 10.3125 10.7996 10.2137 10.9754 10.0379C11.1512 9.8621 11.25 9.62364 11.25 9.375V8.4375H14.0625V9.375C14.0625 9.62364 14.1613 9.8621 14.3371 10.0379C14.5129 10.2137 14.7514 10.3125 15 10.3125C15.2486 10.3125 15.4871 10.2137 15.6629 10.0379C15.8387 9.8621 15.9375 9.62364 15.9375 9.375V8.4375H18.75V9.375C18.75 9.62364 18.8488 9.8621 19.0246 10.0379C19.2004 10.2137 19.4389 10.3125 19.6875 10.3125C19.9361 10.3125 20.1746 10.2137 20.3504 10.0379C20.5262 9.8621 20.625 9.62364 20.625 9.375V8.4375H22.5C22.7486 8.4375 22.9871 8.53627 23.1629 8.71209C23.3387 8.8879 23.4375 9.12636 23.4375 9.375V12.1875H6.5625V9.375ZM23.4375 22.5C23.4375 22.7486 23.3387 22.9871 23.1629 23.1629C22.9871 23.3387 22.7486 23.4375 22.5 23.4375H7.5C7.25136 23.4375 7.0129 23.3387 6.83709 23.1629C6.66127 22.9871 6.5625 22.7486 6.5625 22.5V14.0625H23.4375V22.5Z" fill="#FB7D5B"/>
</g>
</svg>
