<svg width="20" height="20" viewBox="0 0 40 40" fill="none" xmlns="http://www.w3.org/2000/svg">
<g id="Chat">
<path id="Vector" d="M33.3327 3.33301H16.666C15.3399 3.33301 14.0682 3.85979 13.1305 4.79747C12.1928 5.73516 11.666 7.00693 11.666 8.33301V11.6663H6.66602C5.33993 11.6663 4.06816 12.1931 3.13048 13.1308C2.1928 14.0685 1.66602 15.3403 1.66602 16.6663V26.6663C1.66547 27.7008 1.98578 28.7099 2.58278 29.5546C3.17978 30.3994 4.02409 31.0382 4.99935 31.383V34.9997C4.99986 35.295 5.07883 35.5849 5.22818 35.8397C5.37754 36.0944 5.59191 36.305 5.84935 36.4497C6.09844 36.5908 6.3797 36.6655 6.66602 36.6663C6.96515 36.6663 7.25876 36.5857 7.51602 36.433L15.466 31.6663H23.3327C24.6588 31.6663 25.9305 31.1396 26.8682 30.2019C27.8059 29.2642 28.3327 27.9924 28.3327 26.6663V25.6163L32.4827 28.0997C32.7399 28.2523 33.0335 28.3329 33.3327 28.333C33.619 28.3321 33.9003 28.2575 34.1493 28.1163C34.4068 27.9716 34.6212 27.7611 34.7705 27.5063C34.9199 27.2516 34.9988 26.9617 34.9993 26.6663V23.0497C35.9746 22.7049 36.8189 22.0661 37.4159 21.2213C38.0129 20.3766 38.3332 19.3674 38.3327 18.333V8.33301C38.3327 7.00693 37.8059 5.73516 36.8682 4.79747C35.9305 3.85979 34.6588 3.33301 33.3327 3.33301ZM24.9993 26.6663C24.9993 27.1084 24.8238 27.5323 24.5112 27.8449C24.1986 28.1574 23.7747 28.333 23.3327 28.333H14.9993C14.7002 28.3331 14.4066 28.4137 14.1493 28.5663L8.33268 32.0497V29.9997C8.33268 29.5576 8.15709 29.1337 7.84453 28.8212C7.53197 28.5086 7.10804 28.333 6.66602 28.333C6.22399 28.333 5.80007 28.1574 5.4875 27.8449C5.17494 27.5323 4.99935 27.1084 4.99935 26.6663V16.6663C4.99935 16.2243 5.17494 15.8004 5.4875 15.4878C5.80007 15.1753 6.22399 14.9997 6.66602 14.9997H11.666V18.333C11.666 19.6591 12.1928 20.9309 13.1305 21.8685C14.0682 22.8062 15.3399 23.333 16.666 23.333H24.5327L24.9993 23.6163V26.6663ZM34.9993 18.333C34.9993 18.775 34.8238 19.199 34.5112 19.5115C34.1986 19.8241 33.7747 19.9997 33.3327 19.9997C32.8907 19.9997 32.4667 20.1753 32.1542 20.4878C31.8416 20.8004 31.666 21.2243 31.666 21.6663V23.7163L25.8493 20.233C25.5921 20.0804 25.2985 19.9998 24.9993 19.9997H16.666C16.224 19.9997 15.8001 19.8241 15.4875 19.5115C15.1749 19.199 14.9993 18.775 14.9993 18.333V8.33301C14.9993 7.89098 15.1749 7.46706 15.4875 7.1545C15.8001 6.84194 16.224 6.66634 16.666 6.66634H33.3327C33.7747 6.66634 34.1986 6.84194 34.5112 7.1545C34.8238 7.46706 34.9993 7.89098 34.9993 8.33301V18.333Z" fill="#C1BBEB"/>
</g>
</svg>
