<svg width="20" height="20" viewBox="0 0 30 30" fill="none" xmlns="http://www.w3.org/2000/svg">
<g id="Edit">
<path id="Vector" d="M14.8559 1.67988L14.8558 1.67985C14.8123 1.63202 14.7595 1.59351 14.7007 1.56665C14.6419 1.53979 14.5782 1.52514 14.5135 1.52358C14.4489 1.52202 14.3846 1.53358 14.3245 1.55757C14.2645 1.58157 14.2099 1.61749 14.1641 1.66316L14.1641 1.66318L13.7776 2.04783C13.7351 2.09031 13.7112 2.14792 13.7112 2.20798C13.7112 2.26803 13.7351 2.32563 13.7775 2.36812C13.7775 2.36812 13.7775 2.36812 13.7776 2.36813L14.1319 2.72186L14.132 2.72191C14.153 2.74306 14.178 2.75985 14.2056 2.7713C14.2331 2.78275 14.2627 2.78864 14.2925 2.78864C14.3224 2.78864 14.3519 2.78275 14.3795 2.7713C14.407 2.75985 14.4321 2.74306 14.4531 2.72191L14.4532 2.72183L14.83 2.34686L14.8301 2.34683M14.8559 1.67988L14.8732 1.66407C15.055 1.86313 15.0372 2.17313 14.8466 2.36345L14.8301 2.34683M14.8559 1.67988C15.0287 1.86901 15.0124 2.16473 14.8301 2.34683M14.8559 1.67988L14.8301 2.34683M7.35472 8.46035L7.3547 8.46037C7.32335 8.49159 7.30056 8.53036 7.28853 8.57294L7.28822 8.57404L7.28819 8.57403L7.0274 9.3508C7.02245 9.36773 7.02213 9.38568 7.02647 9.40278C7.03085 9.42001 7.03979 9.43574 7.05236 9.44831C7.06493 9.46088 7.08066 9.46983 7.09789 9.4742C7.11499 9.47854 7.13294 9.47822 7.14987 9.47328L7.92601 9.21248L7.9271 9.21212L7.9271 9.21214C7.96969 9.20011 8.00846 9.17732 8.03968 9.14597L8.0397 9.14595L13.6709 3.50415C13.6709 3.50414 13.6709 3.50412 13.6709 3.50411C13.7186 3.45585 13.7454 3.3907 13.7454 3.32282C13.7454 3.25494 13.7187 3.1898 13.6709 3.14154L7.35472 8.46035ZM7.35472 8.46035L12.996 2.82911C13.0443 2.78091 13.1098 2.75385 13.178 2.75385C13.2463 2.75385 13.3117 2.78091 13.3601 2.82911L13.6709 3.14149L7.35472 8.46035Z" fill="black" stroke="#4C4850" stroke-width="0.046875"/>
<path id="Vector_2" d="M12.5731 6.05188L8.76406 9.86844C8.61684 10.016 8.4359 10.1255 8.23688 10.1875L7.4275 10.4584C7.23542 10.5127 7.03234 10.5147 6.8392 10.4644C6.64606 10.414 6.46985 10.313 6.32871 10.1719C6.18758 10.0308 6.08662 9.85456 6.03626 9.66142C5.9859 9.46828 5.98794 9.26521 6.04219 9.07312L6.31313 8.26375C6.37492 8.06478 6.48421 7.88385 6.63156 7.73656L10.4481 3.92688C10.4831 3.89193 10.5069 3.8474 10.5166 3.7989C10.5263 3.75041 10.5214 3.70014 10.5025 3.65445C10.4836 3.60875 10.4515 3.56969 10.4104 3.5422C10.3693 3.51471 10.321 3.50002 10.2716 3.5H3.75C3.28587 3.5 2.84075 3.68437 2.51256 4.01256C2.18437 4.34075 2 4.78587 2 5.25V12.75C2 13.2141 2.18437 13.6592 2.51256 13.9874C2.84075 14.3156 3.28587 14.5 3.75 14.5H11.25C11.7141 14.5 12.1592 14.3156 12.4874 13.9874C12.8156 13.6592 13 13.2141 13 12.75V6.22844C13 6.17899 12.9853 6.13066 12.9578 6.08956C12.9303 6.04846 12.8912 6.01643 12.8456 5.99753C12.7999 5.97864 12.7496 5.97371 12.7011 5.98338C12.6526 5.99306 12.6081 6.01689 12.5731 6.05188Z" fill="black"/>
</g>
</svg>
