<svg width="20" height="20" viewBox="0 0 40 40" fill="none" xmlns="http://www.w3.org/2000/svg">
<g id="heart">
<path id="Vector" d="M19.9989 35C19.4971 34.9994 19.0071 34.8477 18.5927 34.5648C12.4528 30.3969 9.79423 27.5391 8.32782 25.7523C5.20282 21.9438 3.70673 18.0336 3.74891 13.7992C3.79813 8.94688 7.6911 5 12.427 5C15.8708 5 18.2559 6.93984 19.645 8.55547C19.689 8.60613 19.7434 8.64676 19.8044 8.6746C19.8655 8.70244 19.9318 8.71685 19.9989 8.71685C20.066 8.71685 20.1323 8.70244 20.1934 8.6746C20.2545 8.64676 20.3088 8.60613 20.3528 8.55547C21.7419 6.93828 24.127 5 27.5708 5C32.3067 5 36.1997 8.94688 36.2489 13.8C36.2911 18.0352 34.7934 21.9453 31.67 25.7531C30.2036 27.5398 27.545 30.3977 21.4052 34.5656C20.9906 34.8482 20.5006 34.9996 19.9989 35Z" fill="#C1BBEB"/>
</g>
</svg>
