<svg width="20" height="20" viewBox="0 0 40 40" fill="none" xmlns="http://www.w3.org/2000/svg">
<path d="M33.3335 13.3329L23.3335 4.56619C22.4168 3.74626 21.23 3.29297 20.0002 3.29297C18.7703 3.29297 17.5835 3.74626 16.6668 4.56619L6.66682 13.3329C6.13744 13.8063 5.71499 14.3871 5.42761 15.0366C5.14023 15.6861 4.99451 16.3893 5.00016 17.0995V31.6662C5.00016 32.9923 5.52694 34.264 6.46462 35.2017C7.40231 36.1394 8.67408 36.6662 10.0002 36.6662H30.0002C31.3262 36.6662 32.598 36.1394 33.5357 35.2017C34.4734 34.264 35.0002 32.9923 35.0002 31.6662V17.0829C35.0034 16.3755 34.8566 15.6754 34.5693 15.029C34.282 14.3826 33.8608 13.8044 33.3335 13.3329ZM23.3335 33.3329H16.6668V24.9995C16.6668 24.5575 16.8424 24.1336 17.155 23.821C17.4675 23.5085 17.8915 23.3329 18.3335 23.3329H21.6668C22.1089 23.3329 22.5328 23.5085 22.8453 23.821C23.1579 24.1336 23.3335 24.5575 23.3335 24.9995V33.3329ZM31.6668 31.6662C31.6668 32.1082 31.4912 32.5321 31.1787 32.8447C30.8661 33.1573 30.4422 33.3329 30.0002 33.3329H26.6668V24.9995C26.6668 23.6734 26.14 22.4017 25.2024 21.464C24.2647 20.5263 22.9929 19.9995 21.6668 19.9995H18.3335C17.0074 19.9995 15.7356 20.5263 14.798 21.464C13.8603 22.4017 13.3335 23.6734 13.3335 24.9995V33.3329H10.0002C9.55813 33.3329 9.13421 33.1573 8.82165 32.8447C8.50909 32.5321 8.33349 32.1082 8.33349 31.6662V17.0829C8.33379 16.8462 8.38448 16.6123 8.48219 16.3968C8.57989 16.1813 8.72238 15.989 8.90016 15.8329L18.9002 7.08286C19.2043 6.81566 19.5953 6.6683 20.0002 6.6683C20.405 6.6683 20.796 6.81566 21.1002 7.08286L31.1002 15.8329C31.2779 15.989 31.4204 16.1813 31.5181 16.3968C31.6158 16.6123 31.6665 16.8462 31.6668 17.0829V31.6662Z" fill="#C1BBEB"/>
</svg>
