<svg width="20" height="20" viewBox="0 0 40 40" fill="none" xmlns="http://www.w3.org/2000/svg">
<g id="material-symbols-light:logout">
<path id="Vector" d="M9.35768 33.3337C8.59102 33.3337 7.95102 33.077 7.43768 32.5637C6.92324 32.0492 6.66602 31.4087 6.66602 30.642V9.35866C6.66602 8.59199 6.92324 7.95199 7.43768 7.43866C7.95102 6.92421 8.59102 6.66699 9.35768 6.66699H20.031V8.33366H9.35768C9.10213 8.33366 8.86713 8.44033 8.65268 8.65366C8.43935 8.8681 8.33268 9.1031 8.33268 9.35866V30.642C8.33268 30.8975 8.43935 31.1325 8.65268 31.347C8.86713 31.5603 9.10213 31.667 9.35768 31.667H20.031V33.3337H9.35768ZM27.436 25.897L26.266 24.6987L30.131 20.8337H15.3193V19.167H30.131L26.2643 15.3003L27.436 14.1037L33.3327 20.0003L27.436 25.897Z" fill="#C1BBEB"/>
</g>
</svg>
