<svg width="20" height="20" viewBox="0 0 40 40" fill="none" xmlns="http://www.w3.org/2000/svg">
<path id="Vector" d="M18.75 11.25C18.75 10.9185 18.6183 10.6005 18.3839 10.3661C18.1495 10.1317 17.8315 10 17.5 10C17.1685 10 16.8505 10.1317 16.6161 10.3661C16.3817 10.6005 16.25 10.9185 16.25 11.25V16.25H11.25C10.9185 16.25 10.6005 16.3817 10.3661 16.6161C10.1317 16.8505 10 17.1685 10 17.5C10 17.8315 10.1317 18.1495 10.3661 18.3839C10.6005 18.6183 10.9185 18.75 11.25 18.75H16.25V23.75C16.25 24.0815 16.3817 24.3995 16.6161 24.6339C16.8505 24.8683 17.1685 25 17.5 25C17.8315 25 18.1495 24.8683 18.3839 24.6339C18.6183 24.3995 18.75 24.0815 18.75 23.75V18.75H23.75C24.0815 18.75 24.3995 18.6183 24.6339 18.3839C24.8683 18.1495 25 17.8315 25 17.5C25 17.1685 24.8683 16.8505 24.6339 16.6161C24.3995 16.3817 24.0815 16.25 23.75 16.25H18.75V11.25ZM6.25 0C4.5924 0 3.00269 0.65848 1.83058 1.83058C0.65848 3.00268 0 4.5924 0 6.25V28.75C0 30.4076 0.65848 31.9973 1.83058 33.1694C3.00269 34.3415 4.5924 35 6.25 35H28.75C30.4076 35 31.9973 34.3415 33.1694 33.1694C34.3415 31.9973 35 30.4076 35 28.75V6.25C35 4.5924 34.3415 3.00268 33.1694 1.83058C31.9973 0.65848 30.4076 0 28.75 0H6.25ZM2.5 6.25C2.5 5.25544 2.89509 4.30161 3.59835 3.59835C4.30161 2.89509 5.25544 2.5 6.25 2.5H28.75C29.7446 2.5 30.6984 2.89509 31.4017 3.59835C32.1049 4.30161 32.5 5.25544 32.5 6.25V28.75C32.5 29.7446 32.1049 30.6984 31.4017 31.4016C30.6984 32.1049 29.7446 32.5 28.75 32.5H6.25C5.25544 32.5 4.30161 32.1049 3.59835 31.4016C2.89509 30.6984 2.5 29.7446 2.5 28.75V6.25ZM13.75 40C11.4593 40.0033 9.25918 39.1053 7.625 37.5H31.25C32.9076 37.5 34.4973 36.8415 35.6694 35.6694C36.8415 34.4973 37.5 32.9076 37.5 31.25V7.625C39.0475 9.205 40 11.365 40 13.75V31.25C40 33.5706 39.0781 35.7962 37.4372 37.4372C35.7962 39.0781 33.5706 40 31.25 40H13.75Z" fill="#C1BBEB"/>
</svg>
