<svg width="20" height="20" viewBox="0 0 40 40" fill="none" xmlns="http://www.w3.org/2000/svg">
<path id="Vector" d="M39.9176 7.08561C39.8974 6.76649 39.7708 6.46337 39.5579 6.22477C39.345 5.98616 39.0582 5.82588 38.7435 5.76956C31.02 4.38387 27.7958 3.3821 20.5884 0.126797C20.4035 0.0432249 20.2029 0 20 0C19.7971 0 19.5965 0.0432249 19.4116 0.126797C12.2042 3.3821 8.97999 4.38387 1.25652 5.76956C0.941754 5.82588 0.654979 5.98616 0.442104 6.22477C0.229228 6.46337 0.102562 6.76649 0.0823788 7.08561C-0.261383 12.5418 0.471677 17.6256 2.2637 22.1961C3.73118 25.9241 5.90294 29.3347 8.66034 32.2414C13.4346 37.3065 18.5035 39.5065 19.4705 39.8958C19.8141 40.0347 20.1984 40.0347 20.542 39.8958C21.509 39.5065 26.5779 37.3065 31.3522 32.2414C34.1051 29.3336 36.2726 25.9231 37.7363 22.1961C39.5283 17.6256 40.2614 12.5418 39.9176 7.08561ZM28.2208 13.7917L18.3276 25.2201C18.2004 25.3675 18.0444 25.4873 17.8692 25.5722C17.694 25.6571 17.5033 25.7053 17.3088 25.7139H17.2499C16.876 25.7139 16.517 25.5675 16.2499 25.3058L11.8569 21.0023C11.7229 20.871 11.616 20.7146 11.5424 20.542C11.4689 20.3694 11.43 20.184 11.4281 19.9963C11.4243 19.6174 11.5711 19.2525 11.8363 18.9818C12.1016 18.7112 12.4634 18.557 12.8424 18.5531C13.2213 18.5492 13.5863 18.6961 13.8569 18.9613L17.1606 22.2014L26.0627 11.9221C26.1855 11.7803 26.335 11.664 26.5027 11.5799C26.6704 11.4958 26.853 11.4455 27.0402 11.432C27.2273 11.4185 27.4153 11.442 27.5933 11.5011C27.7714 11.5602 27.9361 11.6538 28.0779 11.7766C28.2198 11.8994 28.3361 12.0489 28.4202 12.2166C28.5043 12.3843 28.5546 12.5669 28.5681 12.754C28.5816 12.9411 28.5581 13.1291 28.499 13.3072C28.4399 13.4852 28.3463 13.6499 28.2235 13.7917H28.2208Z" fill="#C1BBEB"/>
</svg>
